<svg width="206" height="205" viewBox="0 0 206 205" fill="none" xmlns="http://www.w3.org/2000/svg">
<path d="M147.828 195.004L85.3982 203.462C82.5778 203.844 80.2719 201.242 80.991 198.488L101.64 119.4C102.539 115.96 107.143 115.314 108.953 118.374L150.734 189.004C152.191 191.468 150.664 194.62 147.828 195.004Z" fill="black" stroke="black"/>
<path d="M58.8334 8.34277L121.371 0.722059C124.196 0.377773 126.467 3.01094 125.711 5.75492L104.004 84.5592C103.06 87.9872 98.447 88.5714 96.6779 85.4872L55.8475 14.3036C54.4233 11.8207 55.992 8.68902 58.8334 8.34277Z" fill="black" stroke="black"/>
<path d="M195.914 58.0732L204.372 120.503C204.754 123.323 202.151 125.629 199.397 124.91L120.309 104.261C116.869 103.363 116.223 98.758 119.283 96.9478L189.914 55.1675C192.377 53.7101 195.53 55.2367 195.914 58.0732Z" fill="black" stroke="black"/>
<path d="M8.91754 144.618L1.29673 82.0803C0.95244 79.255 3.5856 76.9842 6.32959 77.74L85.1339 99.4468C88.5619 100.391 89.1461 105.004 86.0619 106.773L14.8784 147.603C12.3954 149.028 9.26379 147.459 8.91754 144.618Z" fill="black" stroke="black"/>
<path d="M202.211 138.123L164.001 188.308C162.283 190.565 158.827 190.366 157.379 187.927L115.003 116.553C113.177 113.477 116 109.733 119.46 110.643L200.045 131.832C202.804 132.557 203.938 135.854 202.211 138.123Z" fill="black" stroke="black"/>
<path d="M3.69365 64.4904L42.5721 14.8217C44.3203 12.5883 47.7732 12.8334 49.1884 15.2915L90.6041 87.2263C92.3894 90.3272 89.5167 94.0328 86.0687 93.0767L5.77454 70.8105C3.02595 70.0483 1.93553 66.7365 3.69365 64.4904Z" fill="black" stroke="black"/>
<path d="M139.033 3.69051L189.218 41.9001C191.474 43.6183 191.276 47.0741 188.837 48.5221L117.463 90.8978C114.386 92.7244 110.643 89.9016 111.552 86.4411L132.741 5.85588C133.466 3.09733 136.763 1.96264 139.033 3.69051Z" fill="black" stroke="black"/>
<path d="M65.0652 199.757L15.3964 160.879C13.163 159.131 13.4081 155.678 15.8661 154.263L87.801 112.847C90.9019 111.061 94.6075 113.934 93.6513 117.382L71.3852 197.676C70.623 200.425 67.3112 201.515 65.0652 199.757Z" fill="black" stroke="black"/>
</svg>
