<svg width="545" height="542" viewBox="0 0 545 542" fill="none" xmlns="http://www.w3.org/2000/svg">
<path d="M273.376 0C266.504 107.642 246.157 62.8486 222.242 203.931C221.526 208.155 221.168 210.267 219.814 211.62C218.461 212.974 216.347 213.331 212.12 214.046C69.9236 238.094 108.253 265.036 0 271.871C108.215 278.704 69.9505 297.258 211.97 319.327C216.261 319.993 218.406 320.327 219.787 321.694C221.167 323.061 221.522 325.205 222.231 329.494C246.15 474.139 266.503 434.341 273.376 542C280.253 434.281 303.999 475.86 328.062 329.348C328.757 325.122 329.104 323.009 330.452 321.649C331.8 320.288 333.907 319.922 338.121 319.19C483.545 293.934 436.696 278.71 545 271.871C436.653 265.03 481.894 241.404 337.855 214.171C333.758 213.396 331.709 213.009 330.396 211.682C329.082 210.356 328.714 208.305 327.978 204.202C302.318 61.0932 280.254 107.735 273.376 0Z" fill="url(#paint0_linear_375_380)"/>
<defs>
<linearGradient id="paint0_linear_375_380" x1="272.5" y1="0" x2="272.5" y2="542" gradientUnits="userSpaceOnUse">
<stop stop-color="#5B6D92"/>
<stop offset="0.655493" stop-color="#D5E3E6"/>
<stop offset="1" stop-color="#D18266"/>
</linearGradient>
</defs>
</svg>
